<svg width="170" height="56" viewBox="0 0 170 56" fill="none" xmlns="http://www.w3.org/2000/svg">
<path d="M0.90918 27.9296V36.0183C0.90918 36.9963 1.29771 37.9343 1.98929 38.6259C2.47186 39.1085 3.07887 39.4477 3.74276 39.6058L11.4422 41.4389C11.994 41.5703 12.5594 41.6367 13.1267 41.6367H38.7295C39.2718 41.6367 39.8125 41.5761 40.3413 41.4559L48.3839 39.628C49.1339 39.4576 49.7989 39.0262 50.2603 38.411C50.6815 37.8494 50.9092 37.1663 50.9092 36.4644V28.0171C50.9092 26.8164 50.5829 25.6383 49.9651 24.6088L49.9244 24.5409C49.6728 24.1215 49.3707 23.7346 49.0249 23.3887C47.9031 22.2669 46.3816 21.6367 44.7951 21.6367H7.72736H5.64741C4.65086 21.6367 3.69512 22.0326 2.99045 22.7373C2.81549 22.9122 2.65823 23.1041 2.52098 23.3099L2.13063 23.8954C1.33418 25.0901 0.90918 26.4938 0.90918 27.9296Z" fill="#672797"/>
<path d="M2.72729 46.1818V39.8182C2.72729 38.814 3.54132 38 4.54548 38H10.9091C11.9133 38 12.7273 38.814 12.7273 39.8182V46.1818C12.7273 47.186 11.9133 48 10.9091 48H4.54548C3.54132 48 2.72729 47.186 2.72729 46.1818Z" fill="#672797"/>
<path d="M39.0911 46.1818V39.8182C39.0911 38.814 39.9051 38 40.9092 38H47.2729C48.277 38 49.0911 38.814 49.0911 39.8182V46.1818C49.0911 47.186 48.277 48 47.2729 48H40.9092C39.9051 48 39.0911 47.186 39.0911 46.1818Z" fill="#672797"/>
<ellipse cx="9.5459" cy="32.0908" rx="5" ry="5" fill="white"/>
<ellipse cx="42.2732" cy="32.0908" rx="5" ry="5" fill="white"/>
<rect x="18.1824" y="28" width="15.4546" height="1.81818" rx="0.909091" fill="white"/>
<rect x="18.1824" y="31.1816" width="15.4546" height="1.81818" rx="0.909091" fill="white"/>
<rect x="18.1824" y="34.3638" width="15.4546" height="1.81818" rx="0.909091" fill="white"/>
<path d="M47.8267 17.0908H45.815C44.6807 17.0908 43.8233 18.1182 44.0262 19.2343L44.5162 21.9295C44.5358 22.0368 44.5645 22.1506 44.6671 22.1877C44.9934 22.3058 46.046 22.3787 48.6365 22.0908C51.5071 21.7719 50.391 19.3313 49.1531 17.7139C48.8399 17.3046 48.3422 17.0908 47.8267 17.0908Z" fill="#672797"/>
<path d="M42.7274 23.4545C42.7274 22.0079 42.1048 20.6205 40.9966 19.5976C39.8885 18.5747 38.3855 18 36.8183 18C35.2511 18 33.7481 18.5747 32.6399 19.5976C31.5317 20.6205 30.9092 22.0079 30.9092 23.4545L32.502 23.4545C32.502 22.3979 32.9568 21.3845 33.7662 20.6373C34.5757 19.8901 35.6735 19.4703 36.8183 19.4703C37.963 19.4703 39.0609 19.8901 39.8703 20.6373C40.6798 21.3845 41.1345 22.3979 41.1345 23.4545H42.7274Z" fill="#672797"/>
<path d="M2.61688 17.0908H4.62856C5.76293 17.0908 6.62034 18.1182 6.41741 19.2343L5.92737 21.9295C5.90785 22.0368 5.87911 22.1506 5.77654 22.1877C5.45024 22.3058 4.3976 22.3787 1.80713 22.0908C-1.06354 21.7719 0.0526228 19.3313 1.29047 17.7139C1.60373 17.3046 2.10145 17.0908 2.61688 17.0908Z" fill="#672797"/>
<path d="M5.90918 22.0909L9.11085 11.6855C9.39337 10.7673 9.95951 9.96225 10.728 9.38586L10.8828 9.2698C11.202 9.03037 11.5514 8.83402 11.9219 8.68582L12.8237 8.32511C13.3606 8.11034 13.9336 8 14.5118 8H36.3975C36.9757 8 37.5487 8.11034 38.0856 8.32511L38.9874 8.68582C39.3579 8.83402 39.7073 9.03037 40.0265 9.2698L40.2507 9.43796C40.9761 9.98201 41.5222 10.7306 41.8188 11.5875L45.4547 22.0909" stroke="#672797" stroke-width="1.36364"/>
<path d="M89.4 35.88L89.96 36.52C88.5467 38.4933 87.04 39.84 85.44 40.56C83.84 41.28 81.88 41.64 79.56 41.64C76.1467 41.64 73.24 40.24 70.84 37.44C68.44 34.5867 67.2533 31.0933 67.28 26.96C67.3333 22.8 68.5333 19.4133 70.88 16.8C73.2267 14.16 76.12 12.84 79.56 12.84C81.7467 12.84 83.3333 12.9467 84.32 13.16C85.3067 13.3467 86.4933 13.7067 87.88 14.24V20.52H86.68C86.4933 18.1733 85.8667 16.48 84.8 15.44C83.7333 14.3733 82.0267 13.8933 79.68 14C74.5067 14.24 71.92 18.6533 71.92 27.24C71.92 31.0267 72.5867 34.1333 73.92 36.56C75.3067 38.96 77.12 40.1867 79.36 40.24C81.6 40.2667 83.44 39.9467 84.88 39.28C86.32 38.5867 87.8267 37.4533 89.4 35.88ZM109.536 39.88V41H103.136V37.72C100.763 40.2267 98.5226 41.48 96.4159 41.48C95.0026 41.48 93.8693 41.0667 93.0159 40.24C92.0826 39.4133 91.6159 38.24 91.6159 36.72C91.6159 34.6133 92.4293 33.04 94.0559 32C95.2826 31.2533 97.0026 30.68 99.2159 30.28L103.136 29.6C103.189 27.7067 103.029 26.32 102.656 25.44C102.123 24.1867 101.203 23.56 99.8959 23.56C97.6293 23.56 96.4826 24.32 96.4559 25.84C96.4559 26.1067 96.6026 26.4267 96.8959 26.8C97.2159 27.1467 97.3759 27.3333 97.3759 27.36C97.4026 27.76 97.2026 28.0933 96.7759 28.36C96.3759 28.6267 96.0026 28.72 95.6559 28.64C94.3226 28.64 93.6693 27.9067 93.6959 26.44C93.7226 24.9467 94.6426 23.8267 96.4559 23.08C97.5759 22.6533 98.7626 22.44 100.016 22.44C102.123 22.44 103.696 23.0267 104.736 24.2C105.776 25.48 106.296 27.5067 106.296 30.28V39C106.296 39.2667 106.389 39.48 106.576 39.64C106.763 39.8 106.976 39.88 107.216 39.88H109.536ZM103.136 36.12V30.92C100.816 31.2133 98.9093 31.6533 97.4159 32.24C96.7226 32.5067 96.1493 33 95.6959 33.72C95.2426 34.44 95.0159 35.2267 95.0159 36.08C95.0159 36.9333 95.3093 37.6533 95.8959 38.24C96.5093 38.8267 97.2293 39.1467 98.0559 39.2C98.9093 39.2267 99.8026 38.9467 100.736 38.36C101.696 37.7467 102.496 37 103.136 36.12ZM114.616 39V25.2C114.589 24.2933 114.136 23.84 113.256 23.84H111.416V22.72H117.976V26.4C118.269 25.68 118.816 24.9067 119.616 24.08C120.816 22.88 122.083 22.28 123.416 22.28C124.216 22.28 124.856 22.5467 125.336 23.08C125.816 23.6133 126.056 24.2533 126.056 25C126.056 26.4667 125.389 27.2667 124.056 27.4C123.523 26.2267 122.643 25.64 121.416 25.64C120.536 25.64 119.736 26.08 119.016 26.96C118.296 27.84 117.936 28.84 117.936 29.96V39C118.016 39.6133 118.323 39.92 118.856 39.92H121.176V41H111.456V39.92H113.696C114.176 39.92 114.483 39.6133 114.616 39ZM130.945 22.48C130.945 16.0267 133.812 12.8267 139.545 12.88C141.278 12.88 142.785 13.24 144.065 13.96C145.345 14.6533 146.092 15.5733 146.305 16.72C146.412 17.36 146.278 17.88 145.905 18.28C145.532 18.68 145.118 18.88 144.665 18.88C144.212 18.88 143.785 18.7867 143.385 18.6C142.985 18.3867 142.825 18.0667 142.905 17.64C142.905 17.5333 143.012 17.36 143.225 17.12C143.438 16.88 143.545 16.6667 143.545 16.48C143.545 16.2933 143.505 16.1067 143.425 15.92C143.158 15.28 142.665 14.76 141.945 14.36C141.225 13.96 140.438 13.76 139.585 13.76C136.012 13.7867 134.225 16.64 134.225 22.32V22.88L134.265 22.52C134.265 22.5467 134.265 22.84 134.265 23.4H137.425C140.385 23.4 142.358 23.1467 143.345 22.64H144.745V37C144.745 37.7467 144.772 38.4267 144.825 39.04C144.878 39.6267 145.172 39.92 145.705 39.92H148.025V41H138.265V39.92H140.505C140.985 39.92 141.292 39.6133 141.425 39V28C141.425 26.5867 141.358 25.7867 141.225 25.6C140.932 25.0667 139.678 24.8267 137.465 24.88H134.265V37C134.265 37.7467 134.292 38.4267 134.345 39.04C134.398 39.6267 134.692 39.92 135.225 39.92H137.465V41H127.705V39.92H129.945C130.425 39.92 130.732 39.6133 130.865 39C130.892 38.4133 130.905 37.7733 130.905 37.08L130.945 24.88H127.745V23.4H130.945V22.48ZM162.737 22.44H169.177L168.377 24.56L163.777 24.16C165.031 25.3333 165.671 26.68 165.697 28.2C165.751 29.4 165.431 30.5733 164.737 31.72C164.044 32.8667 163.151 33.72 162.057 34.28C160.671 35.0533 159.297 35.44 157.937 35.44C157.511 35.44 157.137 35.3867 156.817 35.28L155.697 36.24C155.244 36.6933 155.017 37.1067 155.017 37.48C155.017 38.0933 155.364 38.52 156.057 38.76C156.377 38.8667 157.017 38.9467 157.977 39L164.217 39.48C167.284 39.6933 168.817 41.1733 168.817 43.92C168.817 46.0267 167.857 47.8667 165.937 49.44C164.044 51.0133 161.484 51.8 158.257 51.8C155.857 51.8 153.857 51.24 152.257 50.12C150.657 49.0533 149.857 47.72 149.857 46.12C149.857 44.5467 150.404 43.36 151.497 42.56C152.217 41.9467 153.164 41.56 154.337 41.4C152.657 40.9733 151.817 40.2133 151.817 39.12C151.817 38.2933 152.297 37.44 153.257 36.56C153.631 36.24 154.337 35.76 155.377 35.12C154.577 35.0933 153.631 34.5867 152.537 33.6C151.444 32.6133 150.884 31.3733 150.857 29.88C150.777 27.56 151.564 25.7467 153.217 24.44C154.871 23.1067 156.924 22.4267 159.377 22.4C160.791 22.4 161.911 22.4133 162.737 22.44ZM158.297 34.04C159.551 34.04 160.551 33.6133 161.297 32.76C162.071 31.88 162.431 30.6933 162.377 29.2C162.351 27.68 162.017 26.48 161.377 25.6C160.604 24.4 159.524 23.8 158.137 23.8C156.777 23.8 155.751 24.28 155.057 25.24C154.364 26.2 154.017 27.4533 154.017 29C154.017 30.52 154.417 31.7467 155.217 32.68C156.044 33.5867 157.071 34.04 158.297 34.04ZM160.297 42.24L156.137 41.88C155.417 41.9067 154.724 42.24 154.057 42.88C153.257 43.5467 152.857 44.4267 152.857 45.52C152.857 47.1733 153.377 48.4133 154.417 49.24C155.484 50.0933 156.964 50.52 158.857 50.52C160.777 50.52 162.404 50.04 163.737 49.08C165.071 48.12 165.737 46.8533 165.737 45.28C165.737 44.1867 165.284 43.44 164.377 43.04C163.657 42.6933 162.297 42.4267 160.297 42.24Z" fill="#672797"/>
</svg>
