<svg width="58" height="50" viewBox="0 0 58 50" fill="none" xmlns="http://www.w3.org/2000/svg">
<path d="M0 7.14286C0 3.20312 3.25117 0 7.25 0H50.75C54.7488 0 58 3.20312 58 7.14286V42.8571C58 46.7969 54.7488 50 50.75 50H7.25C3.25117 50 0 46.7969 0 42.8571V7.14286ZM36.6805 19.029C36.1707 18.2924 35.3324 17.8571 34.4375 17.8571C33.5426 17.8571 32.693 18.2924 32.1945 19.029L22.3391 33.2701L19.3371 29.5759C18.816 28.9397 18.0344 28.5714 17.2188 28.5714C16.4031 28.5714 15.6102 28.9397 15.1004 29.5759L7.85039 38.5045C7.19336 39.308 7.06875 40.4129 7.52188 41.3393C7.975 42.2656 8.92656 42.8571 9.96875 42.8571H48.0312C49.0395 42.8571 49.9684 42.3103 50.4328 41.4286C50.8973 40.5469 50.8406 39.4866 50.2742 38.6719L36.6805 19.029ZM12.6875 17.8571C14.1296 17.8571 15.5127 17.2927 16.5324 16.2881C17.5521 15.2834 18.125 13.9208 18.125 12.5C18.125 11.0792 17.5521 9.71659 16.5324 8.71193C15.5127 7.70727 14.1296 7.14286 12.6875 7.14286C11.2454 7.14286 9.86234 7.70727 8.84261 8.71193C7.82288 9.71659 7.25 11.0792 7.25 12.5C7.25 13.9208 7.82288 15.2834 8.84261 16.2881C9.86234 17.2927 11.2454 17.8571 12.6875 17.8571Z" fill="black" fill-opacity="0.19"/>
</svg>
